<svg width="17" height="30" viewBox="0 0 17 30" fill="none" xmlns="http://www.w3.org/2000/svg">
<path d="M9.15525 29.8299C8.55768 29.6363 4.32841 28.1951 2.97648 24.0652C2.46887 22.5146 2.56525 21.1683 2.63722 20.5215C2.95335 17.6496 4.68952 15.0399 7.4435 13.6791L7.45249 6.77745C7.45249 6.44021 7.42037 6.1662 7.30214 5.84608C7.89585 5.80788 8.40732 5.80656 9.04473 5.825C8.88153 6.26632 8.86867 6.69051 8.87124 7.16607L8.90466 12.2932C11.4903 12.0403 12.981 9.20271 12.8294 6.76691C12.7317 5.19003 11.9401 3.82657 10.7308 2.87675C8.35849 1.01269 4.50832 1.1655 2.48043 3.53148C1.57444 4.58932 1.19533 6.15829 1.85202 7.38475C2.24012 8.11062 3.12812 8.40176 3.82336 7.98152C4.28986 7.6996 4.40552 7.04883 4.02513 6.6747C3.87477 6.52847 3.66658 6.49817 3.47896 6.54823C3.34788 6.5838 3.22322 6.69709 3.12941 6.88152C3.00475 6.82751 2.92379 6.68919 2.91223 6.5232C2.87367 5.97913 3.2335 5.47327 3.77582 5.34548C4.61627 5.14788 5.46572 5.6735 5.69576 6.54428C6.09414 8.0487 5.04678 9.53205 3.54835 9.67432C2.44316 9.77971 1.44978 9.36475 0.781528 8.45577C-0.593531 6.58907 -0.0306567 3.93327 1.51018 2.32346C2.35706 1.38945 3.40314 0.772929 4.57772 0.389578C5.14059 0.199878 6.0029 -0.016169 7.06568 0.000956627C7.99995 0.0167649 8.76587 0.209099 9.29404 0.386943C10.6485 0.869096 11.791 1.5673 12.6906 2.64094C15.3816 5.72093 14.7339 10.6426 11.3515 12.9163C13.5464 13.0415 15.6643 14.1797 16.6153 16.3244C17.4943 18.3057 16.826 20.6321 15.0295 21.7848C14.1389 22.3565 13.0941 22.5146 12.0943 22.2274C10.6858 21.8217 9.83379 20.395 10.1936 18.9472C10.335 18.3794 10.7128 17.9276 11.1497 17.7208C11.7075 17.456 12.3102 17.4626 12.7831 17.7919C13.2843 18.1397 13.4475 18.8115 13.0208 19.2766C12.8859 19.0368 12.7073 18.9182 12.4862 18.9196C12.2575 18.9196 12.0429 18.9999 11.9054 19.2331C11.6329 19.6994 11.8128 20.3383 12.314 20.5873C13.1506 21.0036 14.1235 20.748 14.7339 20.0248C15.4612 19.1633 15.6 17.9829 15.1618 16.9303C14.1659 14.5367 11.097 14.1086 8.8751 14.8963L8.88024 21.1037C8.88024 21.3949 8.94193 21.6412 9.0653 21.9323L7.30471 21.9574C7.39338 21.6531 7.45378 21.412 7.45378 21.0998L7.44478 15.5879C3.83365 17.8499 3.09857 22.9507 5.99647 26.1901C7.03483 27.3493 8.46258 28.0344 10.006 28.2754C12.3783 28.5508 14.6182 28.0871 16.2426 26.0228L15.3687 29.3478C15.0629 29.1199 14.7776 29.1594 14.4691 29.2332C13.8176 29.4347 13.1661 29.6363 12.5145 29.8378C12.0699 29.9261 11.5276 29.9972 10.9068 29.9999C10.2232 30.0038 9.63074 29.9248 9.15525 29.8286V29.8299Z" fill="black"/>
</svg>
